<svg width="40" height="40" viewBox="0 0 40 40" fill="none" xmlns="http://www.w3.org/2000/svg">
<path d="M3 9.17857C3 7.80513 3.5456 6.48794 4.51677 5.51677C5.48794 4.5456 6.80513 4 8.17857 4H26.8214C28.1949 4 29.5121 4.5456 30.4832 5.51677C31.4544 6.48794 32 7.80513 32 9.17857V27.8214C32 29.1949 31.4544 30.5121 30.4832 31.4832C29.5121 32.4544 28.1949 33 26.8214 33H8.17857C6.80513 33 5.48794 32.4544 4.51677 31.4832C3.5456 30.5121 3 29.1949 3 27.8214V9.17857ZM5.07143 19.5357V27.8214C5.07143 28.6455 5.39879 29.4358 5.98149 30.0185C6.56419 30.6012 7.35451 30.9286 8.17857 30.9286H16.4643V19.5357H5.07143ZM16.4643 17.4643V6.07143H8.17857C7.35451 6.07143 6.56419 6.39879 5.98149 6.98149C5.39879 7.56419 5.07143 8.35451 5.07143 9.17857V17.4643H16.4643ZM18.5357 19.5357V30.9286H26.8214C27.6455 30.9286 28.4358 30.6012 29.0185 30.0185C29.6012 29.4358 29.9286 28.6455 29.9286 27.8214V19.5357H18.5357ZM29.9286 17.4643V9.17857C29.9286 8.35451 29.6012 7.56419 29.0185 6.98149C28.4358 6.39879 27.6455 6.07143 26.8214 6.07143H18.5357V17.4643H29.9286Z" fill="#2247AF"/>
</svg>
