<svg width="40" height="40" viewBox="0 0 40 40" fill="none" xmlns="http://www.w3.org/2000/svg">
<path d="M33.9182 14.4067C35.1792 17.5446 35.3428 21.0165 34.3826 24.2591C33.4224 27.5016 31.3947 30.3246 28.6284 32.2699C25.8622 34.2152 22.5198 35.1686 19.1435 34.9755C17.7201 34.8941 16.3259 34.6109 15 34.1421M23.3333 5.37506C20.2492 4.67207 17.0157 4.96115 14.0979 6.20996C10.989 7.54059 8.42085 9.88274 6.81031 12.8564C6.53705 13.3609 6.29407 13.8786 6.08183 14.4067C5.04317 16.9913 4.74046 19.8257 5.22558 22.5915C5.40694 23.6254 5.69509 24.6309 6.08183 25.5932" stroke="#2247AF" stroke-width="2" stroke-linecap="round"/>
<circle cx="26.5" cy="6.5" r="3.5" stroke="#2247AF" stroke-width="2"/>
<circle cx="11.5" cy="33.5" r="3.5" stroke="#2247AF" stroke-width="2"/>
<path d="M15.6878 16.7249L19.3868 15.2453C19.7804 15.0878 20.2196 15.0878 20.6132 15.2453L24.3122 16.7249C24.7276 16.891 25 17.2934 25 17.7408V19.5053C25 21.7142 23.9959 23.8033 22.2711 25.1831C20.9433 26.2453 19.0567 26.2453 17.7289 25.1831C16.0041 23.8033 15 21.7142 15 19.5053V17.7408C15 17.2934 15.2724 16.891 15.6878 16.7249Z" stroke="#2247AF" stroke-width="2" stroke-linecap="round" stroke-linejoin="round"/>
</svg>
