<svg width="930" height="921" viewBox="0 0 930 921" fill="none" xmlns="http://www.w3.org/2000/svg">
<path d="M154.284 613.955L198.211 592.243L202.221 600.255L165.197 618.556L176.569 641.279L213.593 622.979L217.602 630.991L173.676 652.704L154.284 613.955Z" fill="#2247AF"/>
<path d="M185.574 575.476C184.229 571.645 181.826 568.884 178.363 567.193L181.942 561.116C184.385 562.018 186.518 563.516 188.342 565.61C190.165 567.705 191.61 570.271 192.677 573.309C194.038 577.184 194.462 580.857 193.95 584.327C193.438 587.798 192.096 590.809 189.926 593.36C187.696 595.882 184.833 597.73 181.339 598.905C177.889 600.065 174.522 600.335 171.238 599.716C167.895 599.068 164.97 597.639 162.463 595.43C159.941 593.176 158.069 590.311 156.847 586.832C155.688 583.53 155.366 580.29 155.883 577.114C156.34 573.908 157.639 571.059 159.78 568.567C161.878 566.089 164.718 564.248 168.301 563.044L183.095 588.272C184.836 586.751 185.912 584.888 186.324 582.682C186.737 580.475 186.487 578.073 185.574 575.476ZM163.482 584.601C164.549 587.64 166.41 589.771 169.066 590.995C171.706 592.175 174.706 592.2 178.068 591.07L178.135 591.047L167.282 572.395C165.316 573.696 163.978 575.45 163.27 577.658C162.546 579.821 162.617 582.136 163.482 584.601Z" fill="#2247AF"/>
<path d="M145.618 546.432C144.759 542.655 144.786 539.196 145.699 536.054C146.602 532.867 148.294 530.208 150.776 528.076C153.248 525.9 156.358 524.425 160.105 523.652C163.808 522.889 167.246 522.967 170.421 523.884C173.596 524.802 176.271 526.466 178.446 528.876C180.61 531.24 182.096 534.197 182.902 537.747C184.05 542.798 183.328 547.092 180.734 550.627L198.422 546.982L200.377 555.582L168.909 562.068C165.206 562.831 161.752 562.686 158.546 561.632C155.294 560.587 152.56 558.768 150.344 556.176C148.072 553.548 146.497 550.3 145.618 546.432ZM175.93 540.542C175.206 537.356 173.565 534.979 171.007 533.41C168.404 531.851 165.411 531.419 162.029 532.117C158.647 532.814 156.109 534.385 154.416 536.83C152.723 539.275 152.239 542.09 152.963 545.275C153.697 548.506 155.338 550.884 157.885 552.407C160.432 553.93 163.42 554.339 166.848 553.632C170.276 552.926 172.841 551.373 174.545 548.973C176.192 546.538 176.654 543.727 175.93 540.542Z" fill="#2247AF"/>
<path d="M170.092 503.443C169.645 499.408 167.924 496.159 164.929 493.697L169.792 488.651C171.971 490.105 173.713 492.064 175.019 494.529C176.324 496.993 177.154 499.826 177.508 503.026C177.96 507.108 177.544 510.772 176.261 514.017C174.978 517.262 172.989 519.865 170.296 521.825C167.552 523.743 164.342 524.857 160.669 525.167C157.042 525.474 153.697 524.938 150.634 523.558C147.52 522.136 144.99 520.056 143.044 517.318C141.093 514.533 139.914 511.309 139.509 507.645C139.123 504.166 139.541 500.947 140.763 497.988C141.932 494.986 143.843 492.531 146.495 490.621C149.1 488.715 152.286 487.603 156.052 487.284L164.783 515.269C166.824 514.206 168.295 512.654 169.196 510.612C170.096 508.569 170.395 506.18 170.092 503.443ZM146.484 507.055C146.838 510.255 148.172 512.764 150.485 514.582C152.793 516.353 155.715 517.089 159.249 516.79L159.318 516.784L152.946 496.115C150.735 496.91 149.034 498.295 147.844 500.268C146.65 502.195 146.196 504.457 146.484 507.055Z" fill="#2247AF"/>
<path d="M145.41 455.871L145.584 475.82L175.537 476.452L175.613 485.201L138.242 484.413L137.992 455.714L145.41 455.871Z" fill="#2247AF"/>
<path d="M177.618 440.262C177.255 444.024 176.118 447.311 174.207 450.12C172.296 452.93 169.823 455.009 166.788 456.357C163.711 457.652 160.345 458.063 156.688 457.591C153.032 457.118 149.85 455.86 147.142 453.817C144.438 451.727 142.422 449.068 141.093 445.839C139.764 442.61 139.281 439.115 139.644 435.352C140.011 431.543 141.15 428.234 143.061 425.424C144.972 422.614 147.443 420.558 150.474 419.257C153.509 417.909 156.855 417.472 160.511 417.945C164.167 418.417 167.37 419.701 170.12 421.797C172.829 423.84 174.847 426.476 176.176 429.705C177.505 432.934 177.985 436.453 177.618 440.262ZM170.19 439.301C170.499 436.096 169.69 433.311 167.762 430.945C165.835 428.58 163.136 427.173 159.665 426.724C156.193 426.275 153.293 426.958 150.962 428.773C148.632 430.588 147.312 433.098 147.003 436.304C146.694 439.509 147.503 442.294 149.43 444.66C151.362 446.979 154.064 448.363 157.535 448.811C161.006 449.26 163.905 448.6 166.231 446.832C168.561 445.017 169.881 442.507 170.19 439.301Z" fill="#2247AF"/>
<path d="M146.73 393.104C147.558 389.32 149.051 386.211 151.207 383.776C153.373 381.295 156.028 379.637 159.172 378.8C162.325 377.918 165.756 377.949 169.464 378.893C173.127 379.826 176.196 381.401 178.671 383.619C181.145 385.837 182.852 388.509 183.791 391.636C184.74 394.717 184.825 398.035 184.047 401.591C182.939 406.651 180.465 410.209 176.625 412.263L194.127 416.718L192.241 425.334L161.104 417.409C157.441 416.476 154.387 414.833 151.942 412.478C149.452 410.112 147.758 407.274 146.859 403.965C145.925 400.599 145.882 396.979 146.73 393.104ZM176.571 401.06C177.27 397.869 176.799 395.006 175.157 392.47C173.471 389.924 170.954 388.224 167.608 387.372C164.261 386.521 161.306 386.827 158.741 388.292C156.176 389.757 154.545 392.085 153.846 395.276C153.137 398.513 153.609 401.376 155.26 403.865C156.911 406.355 159.433 408.032 162.825 408.895C166.216 409.758 169.19 409.48 171.744 408.061C174.264 406.585 175.873 404.251 176.571 401.06Z" fill="#2247AF"/>
<path d="M152.847 370.734L155.76 362.483L169.909 368.01L176.178 350.254L162.029 344.727L164.942 336.476L199.76 350.078L196.847 358.328L183.089 352.954L176.82 370.71L190.578 376.084L187.664 384.335L152.847 370.734Z" fill="#2247AF"/>
<path d="M183.88 298.725L216.768 316.491L213.033 323.936L208.845 321.674C209.695 323.723 210.06 325.909 209.939 328.229C209.798 330.486 209.184 332.699 208.096 334.868C205.856 339.331 202.877 342.201 199.157 343.478C195.396 344.734 191.113 344.064 186.309 341.469L167.525 331.321L171.449 323.501L189.186 333.082C192.142 334.679 194.695 335.21 196.842 334.673C198.97 334.073 200.672 332.501 201.949 329.957C203.33 327.204 203.587 324.559 202.72 322.023C201.833 319.423 199.788 317.258 196.585 315.528L179.956 306.545L183.88 298.725Z" fill="#2247AF"/>
<path d="M220.704 312.189C219.873 313.541 218.715 314.4 217.23 314.767C215.705 315.109 214.24 314.82 212.833 313.901C211.388 312.957 210.497 311.734 210.16 310.233C209.848 308.692 210.12 307.226 210.976 305.835C211.831 304.443 212.99 303.584 214.45 303.257C215.936 302.89 217.401 303.178 218.847 304.123C220.253 305.041 221.132 306.284 221.483 307.85C221.795 309.391 221.535 310.838 220.704 312.189Z" fill="#2247AF"/>
<path d="M225.371 260.605C227.906 258.621 230.47 257.609 233.063 257.571C235.62 257.503 238.091 258.406 240.476 260.28C243.852 262.933 245.525 266.264 245.494 270.275C245.464 274.286 243.644 278.701 240.036 283.52L226.108 302.123L187.579 271.849L200.71 254.31C204.011 249.902 207.446 247.143 211.017 246.033C214.587 244.922 217.95 245.607 221.106 248.086C223.124 249.672 224.49 251.546 225.202 253.708C225.943 255.832 225.999 258.131 225.371 260.605ZM209.406 277.608L216.706 267.858C218.468 265.505 219.352 263.351 219.358 261.397C219.363 259.444 218.467 257.761 216.669 256.348C214.871 254.935 213.052 254.485 211.212 254.997C209.335 255.48 207.515 256.898 205.753 259.252L198.453 269.002L209.406 277.608ZM234.364 279.419C238.224 274.264 238.246 270.187 234.43 267.188C230.687 264.247 226.886 265.355 223.026 270.51L214.635 281.717L225.974 290.626L234.364 279.419Z" fill="#2247AF"/>
<path d="M225.341 244.761L231.261 238.318L258.323 264.105L252.402 270.548L225.341 244.761ZM223.865 237.264C222.792 238.433 221.537 239.074 220.101 239.188C218.632 239.271 217.357 238.796 216.275 237.766C215.194 236.736 214.662 235.488 214.679 234.021C214.662 232.523 215.19 231.189 216.264 230.021C217.337 228.853 218.592 228.211 220.028 228.097C221.43 227.951 222.654 228.376 223.701 229.374C224.816 230.437 225.399 231.733 225.45 233.264C225.499 234.728 224.97 236.062 223.865 237.264Z" fill="#2247AF"/>
<path d="M265.393 206.392L286.325 230.212C295.011 240.098 294.363 249.54 284.38 258.539C281.711 260.945 278.873 262.875 275.865 264.33C272.888 265.82 270.05 266.619 267.35 266.728L265.919 259.161C268.025 259.084 270.259 258.515 272.619 257.455C275.046 256.399 277.212 255.012 279.119 253.293C282.169 250.544 283.789 247.827 283.978 245.144C284.167 242.461 282.998 239.682 280.472 236.807L279.178 235.335C279.147 237.562 278.612 239.709 277.572 241.777C276.532 243.846 275.059 245.739 273.152 247.458C270.518 249.832 267.633 251.427 264.498 252.243C261.367 252.992 258.269 252.895 255.204 251.951C252.173 250.976 249.487 249.157 247.146 246.493C244.805 243.829 243.348 240.933 242.775 237.806C242.205 234.613 242.484 231.503 243.613 228.475C244.777 225.416 246.675 222.699 249.31 220.325C251.32 218.512 253.433 217.205 255.647 216.402C257.896 215.569 260.176 215.336 262.487 215.703L259.206 211.969L265.393 206.392ZM269.242 240.993C271.703 238.775 273.067 236.226 273.333 233.348C273.603 230.403 272.69 227.739 270.596 225.355C268.532 223.007 266.056 221.815 263.167 221.78C260.314 221.713 257.657 222.789 255.196 225.008C252.7 227.258 251.302 229.837 251.001 232.747C250.735 235.625 251.634 238.239 253.698 240.587C255.792 242.971 258.282 244.214 261.166 244.315C264.054 244.35 266.746 243.243 269.242 240.993Z" fill="#2247AF"/>
<path d="M305.744 224.698C302.579 226.932 299.271 228.267 295.82 228.704C292.369 229.141 289.11 228.671 286.043 227.294C282.949 225.879 280.347 223.66 278.237 220.637C276.127 217.615 274.949 214.419 274.703 211.051C274.457 207.683 275.106 204.455 276.649 201.366C278.231 198.251 280.623 195.563 283.825 193.302C286.837 191.176 289.895 189.931 292.999 189.568C296.142 189.178 299.086 189.727 301.833 191.216L298.587 198.305C296.721 197.508 294.881 197.236 293.066 197.489C291.262 197.677 289.579 198.323 288.015 199.426C285.347 201.31 283.75 203.751 283.225 206.749C282.673 209.709 283.412 212.643 285.443 215.551C287.473 218.459 289.96 220.188 292.905 220.737C295.861 221.221 298.692 220.508 301.399 218.597C302.962 217.494 304.151 216.14 304.967 214.536C305.794 212.867 306.151 211.016 306.04 208.981L313.774 208.32C314.195 211.45 313.702 214.454 312.296 217.331C310.901 220.143 308.717 222.599 305.744 224.698Z" fill="#2247AF"/>
<path d="M325.152 195.072L319.19 198.321L326.388 211.458L318.705 215.645L300.742 182.864L308.425 178.677L315.691 191.937L321.838 188.587L324.284 170.035L332.52 165.547L329.241 187.822L351.282 197.893L342.247 202.816L325.152 195.072Z" fill="#2247AF"/>
<path d="M368.38 151.819L382.577 186.398L374.84 189.485L373.006 185.017C372.335 187.193 371.172 189.09 369.515 190.705C367.901 192.304 365.902 193.578 363.518 194.529C360.137 195.878 356.802 196.355 353.512 195.959C350.265 195.546 347.334 194.304 344.718 192.233C342.145 190.144 340.132 187.33 338.679 183.79C337.225 180.25 336.695 176.87 337.087 173.648C337.506 170.367 338.735 167.465 340.777 164.942C342.861 162.402 345.594 160.458 348.975 159.109C351.229 158.21 353.447 157.777 355.63 157.81C357.856 157.826 359.973 158.313 361.981 159.271L360.252 155.062L368.38 151.819ZM361.584 187.238C364.574 186.044 366.637 184.066 367.773 181.302C368.908 178.538 368.811 175.537 367.481 172.299C366.152 169.062 364.104 166.839 361.338 165.631C358.573 164.424 355.694 164.416 352.704 165.61C349.713 166.803 347.65 168.781 346.515 171.545C345.423 174.292 345.542 177.284 346.871 180.522C348.2 183.76 350.226 185.991 352.949 187.216C355.715 188.424 358.593 188.431 361.584 187.238Z" fill="#2247AF"/>
<path d="M373.555 150.806L382.034 148.642L386.05 163.292L404.295 158.635L400.279 143.986L408.757 141.822L418.64 177.872L410.162 180.036L406.257 165.791L388.012 170.448L391.917 184.692L383.439 186.856L373.555 150.806Z" fill="#2247AF"/>
<path d="M450.693 135.999L455.213 167.385C457.089 180.411 451.609 187.689 438.773 189.219C435.391 189.622 432.08 189.547 428.843 188.993C425.658 188.48 422.946 187.488 420.708 186.017L423.662 179.04C425.43 180.192 427.507 181.025 429.89 181.539C432.274 182.054 434.717 182.162 437.219 181.864C441.019 181.411 443.666 180.155 445.161 178.098C446.709 176.081 447.21 173.179 446.664 169.391L446.415 167.659C445.244 169.349 443.722 170.729 441.85 171.797C439.97 172.82 437.872 173.47 435.555 173.746C430.597 174.337 426.485 173.441 423.22 171.059C420 168.67 417.998 164.751 417.213 159.301L414.479 140.316L423.168 139.281L425.742 157.156C426.214 160.436 427.312 162.818 429.034 164.305C430.796 165.739 433.067 166.29 435.848 165.959C438.952 165.589 441.272 164.349 442.806 162.24C444.387 160.125 444.918 157.266 444.399 153.663L442.004 137.035L450.693 135.999Z" fill="#2247AF"/>
<path d="M491.916 136.45L492.783 173.82L484.453 173.769L484.343 169.01C482.981 170.681 481.262 171.976 479.183 172.897C477.151 173.771 474.921 174.2 472.494 174.185C467.501 174.155 463.526 172.754 460.569 169.984C457.611 167.167 456.068 163.029 455.942 157.571L455.447 136.226L464.197 136.28L464.664 156.434C464.742 159.794 465.547 162.317 467.079 164.006C468.657 165.648 470.869 166.478 473.716 166.496C476.796 166.515 479.224 165.573 480.999 163.672C482.82 161.724 483.689 158.93 483.605 155.291L483.166 136.396L491.916 136.45ZM473.474 131.929C469.694 131.905 466.781 131.025 464.735 129.286C462.733 127.501 461.671 124.929 461.546 121.57L467.356 121.605C467.442 123.285 467.986 124.618 468.988 125.604C470.038 126.59 471.473 127.088 473.292 127.099C475.066 127.11 476.454 126.629 477.458 125.656C478.509 124.682 479.038 123.356 479.046 121.677L484.996 121.713C485.027 125.072 484.06 127.632 482.094 129.392C480.128 131.106 477.254 131.952 473.474 131.929Z" fill="#2247AF"/>
<path d="M498.332 175.709C496.752 175.564 495.436 174.904 494.385 173.73C493.337 172.509 492.864 171.061 492.964 169.384C493.068 167.66 493.686 166.312 494.819 165.339C495.999 164.37 497.402 163.96 499.028 164.11C500.655 164.259 501.97 164.919 502.975 166.089C504.026 167.262 504.5 168.711 504.396 170.435C504.295 172.112 503.654 173.458 502.471 174.473C501.292 175.442 499.912 175.854 498.332 175.709Z" fill="#2247AF"/>
<path d="M559.773 136.015L552.084 184.408L543.287 182.708L549.768 141.92L524.819 137.098L518.338 177.886L509.541 176.186L517.23 127.793L559.773 136.015Z" fill="#2247AF"/>
<path d="M581.68 155.514C585.35 156.752 588.328 158.594 590.613 161.038C592.942 163.498 594.442 166.366 595.113 169.645C595.828 172.938 595.635 176.417 594.533 180.081C593.446 183.702 591.756 186.651 589.464 188.93C587.172 191.208 584.472 192.66 581.362 193.284C578.297 193.924 575.039 193.661 571.59 192.498C566.682 190.842 563.312 187.957 561.48 183.844L556.283 201.14L547.926 198.321L557.171 167.55C558.259 163.93 560.015 161.003 562.44 158.769C564.877 156.49 567.74 155.069 571.026 154.504C574.37 153.909 577.922 154.246 581.68 155.514ZM572.465 184.966C575.561 186.011 578.39 185.833 580.953 184.434C583.53 182.99 585.315 180.614 586.309 177.307C587.303 173.999 587.142 170.967 585.828 168.21C584.513 165.453 582.309 163.553 579.213 162.508C576.074 161.449 573.245 161.627 570.725 163.041C568.206 164.455 566.443 166.839 565.436 170.191C564.429 173.543 564.56 176.59 565.831 179.332C567.159 182.044 569.37 183.922 572.465 184.966Z" fill="#2247AF"/>
<path d="M603.088 206.021C599.676 204.395 596.928 202.181 594.846 199.381C592.763 196.58 591.523 193.483 591.126 190.09C590.789 186.675 591.361 183.279 592.841 179.902C594.321 176.526 596.4 173.874 599.078 171.946C601.798 170.039 604.855 168.99 608.249 168.799C611.643 168.608 615.046 169.325 618.459 170.951C621.913 172.597 624.682 174.821 626.764 177.622C628.847 180.422 630.066 183.509 630.421 186.882C630.818 190.274 630.277 193.659 628.797 197.036C627.317 200.412 625.208 203.076 622.469 205.026C619.791 206.953 616.755 208.012 613.361 208.203C609.967 208.394 606.543 207.667 603.088 206.021ZM606.095 199.161C609.002 200.546 611.834 200.707 614.591 199.644C617.349 198.582 619.43 196.447 620.835 193.242C622.24 190.036 622.425 186.999 621.391 184.129C620.357 181.26 618.387 179.132 615.48 177.747C612.573 176.362 609.741 176.201 606.983 177.264C604.268 178.346 602.208 180.491 600.803 183.696C599.398 186.902 599.192 189.929 600.183 192.779C601.217 195.648 603.188 197.776 606.095 199.161Z" fill="#2247AF"/>
<path d="M666.321 199.068L647.465 231.344L640.037 226.72L647.346 214.208C643.425 213.8 639.8 212.56 636.473 210.488C632.392 207.948 629.816 205.053 628.743 201.802C627.694 198.512 628.323 194.892 630.63 190.943L636.668 180.607L644.096 185.232L638.34 195.084C637.14 197.139 636.84 199.04 637.44 200.787C638.04 202.535 639.429 204.087 641.608 205.443C644.381 207.17 647.389 208.218 650.63 208.587L658.893 194.444L666.321 199.068Z" fill="#2247AF"/>
<path d="M699.98 225.733L677.348 255.483L670.836 250.289L673.718 246.5C671.606 246.965 669.447 246.913 667.24 246.347C665.098 245.772 663.078 244.728 661.181 243.215C657.278 240.101 655.028 236.546 654.434 232.551C653.867 228.518 655.237 224.329 658.542 219.984L671.469 202.992L678.309 208.448L666.103 224.493C664.069 227.167 663.127 229.638 663.277 231.906C663.492 234.167 664.712 236.184 666.938 237.959C669.346 239.88 671.84 240.646 674.422 240.259C677.068 239.863 679.493 238.216 681.696 235.319L693.14 220.277L699.98 225.733Z" fill="#2247AF"/>
<path d="M738.306 265.386C741.495 268.857 743.021 272.551 742.883 276.47C742.779 280.357 740.742 284.175 736.774 287.926L721.207 302.639L715.287 296.196L730.04 282.252C732.414 280.008 733.705 277.793 733.914 275.605C734.156 273.386 733.361 271.28 731.53 269.287C729.541 267.122 727.234 266.06 724.61 266.1C722.019 266.109 719.418 267.347 716.807 269.815L703.02 282.846L697.1 276.403L711.853 262.459C714.227 260.215 715.518 257.999 715.727 255.812C715.969 253.593 715.174 251.487 713.343 249.494C711.322 247.295 709.016 246.199 706.426 246.208C703.867 246.25 701.265 247.522 698.62 250.022L684.833 263.053L678.913 256.61L706.079 230.933L711.715 237.067L708.256 240.337C710.424 240.214 712.541 240.621 714.606 241.558C716.671 242.495 718.572 243.909 720.309 245.799C722.203 247.861 723.487 250.051 724.159 252.369C724.897 254.689 724.946 257.018 724.306 259.356C726.773 259.144 729.217 259.563 731.639 260.612C734.095 261.63 736.317 263.221 738.306 265.386Z" fill="#2247AF"/>
<path d="M769.501 310.984L738.539 331.928L733.898 325.01L737.899 322.304C735.624 322.096 733.522 321.349 731.592 320.063C729.688 318.816 728.021 317.126 726.591 314.995C724.563 311.972 723.401 308.814 723.103 305.523C722.832 302.269 723.439 299.154 724.926 296.177C726.439 293.238 728.78 290.696 731.949 288.552C735.119 286.408 738.325 285.198 741.566 284.921C744.873 284.656 747.976 285.261 750.876 286.736C753.802 288.25 756.279 290.519 758.306 293.541C759.658 295.557 760.545 297.633 760.967 299.77C761.415 301.946 761.379 304.112 760.858 306.267L764.626 303.718L769.501 310.984ZM733.341 311.612C735.134 314.286 737.505 315.894 740.453 316.435C743.401 316.976 746.324 316.267 749.223 314.306C752.123 312.345 753.876 309.891 754.484 306.944C755.093 303.997 754.5 301.187 752.706 298.513C750.913 295.838 748.542 294.231 745.594 293.69C742.672 293.187 739.762 293.916 736.863 295.877C733.963 297.838 732.197 300.273 731.563 303.181C730.954 306.127 731.547 308.938 733.341 311.612Z" fill="#2247AF"/>
<path d="M789.475 350.275L756.035 366.979L752.281 359.543L756.539 357.416C754.406 356.917 752.448 355.939 750.667 354.481C748.948 353.045 747.542 351.243 746.448 349.077C744.198 344.619 743.652 340.484 744.812 336.671C746.012 332.837 749.055 329.699 753.94 327.259L773.039 317.719L776.983 325.53L758.948 334.539C755.942 336.04 754.024 337.833 753.194 339.917C752.427 342.021 752.685 344.344 753.968 346.886C755.356 349.635 757.316 351.395 759.848 352.164C762.442 352.955 765.368 352.537 768.624 350.91L785.532 342.464L789.475 350.275ZM785.155 331.932C783.451 328.558 782.92 325.589 783.56 323.026C784.263 320.484 786.107 318.441 789.092 316.898L791.71 322.085C790.229 322.877 789.27 323.93 788.835 325.243C788.421 326.597 788.624 328.087 789.444 329.711C790.244 331.294 791.313 332.325 792.652 332.804C794.013 333.324 795.455 333.229 796.979 332.52L799.66 337.832C796.633 339.292 793.875 339.522 791.384 338.523C788.935 337.504 786.859 335.307 785.155 331.932Z" fill="#2247AF"/>
<path d="M757.511 373.416C756.914 371.946 756.904 370.495 757.481 369.064C758.101 367.615 759.193 366.583 760.755 365.966C762.362 365.333 763.866 365.316 765.268 365.917C766.689 366.561 767.706 367.639 768.321 369.153C768.935 370.666 768.946 372.117 768.351 373.505C767.774 374.936 766.682 375.969 765.076 376.602C763.513 377.218 762 377.213 760.537 376.587C759.117 375.943 758.108 374.886 757.511 373.416Z" fill="#2247AF"/>
<path d="M796.411 407.543C796.519 410.765 795.826 413.442 794.332 415.574C792.882 417.693 790.7 419.173 787.786 420.014C783.661 421.205 779.991 420.614 776.775 418.24C773.56 415.866 771.071 411.801 769.309 406.044L762.506 383.822L809.583 370.227L815.996 391.178C817.608 396.443 817.811 400.853 816.605 404.406C815.4 407.96 812.869 410.294 809.013 411.407C806.547 412.119 804.233 412.132 802.071 411.445C799.922 410.803 798.036 409.502 796.411 407.543ZM792.097 384.602L795.662 396.248C796.523 399.06 797.739 401.04 799.311 402.189C800.882 403.337 802.766 403.595 804.963 402.96C807.16 402.326 808.594 401.11 809.264 399.314C809.979 397.505 809.906 395.195 809.045 392.383L805.48 380.737L792.097 384.602ZM775.952 403.835C777.837 409.992 781.111 412.398 785.774 411.052C790.347 409.731 791.691 405.992 789.806 399.834L785.708 386.447L771.854 390.448L775.952 403.835Z" fill="#2247AF"/>
<path d="M814.489 435.547C815.153 439.363 814.948 442.815 813.875 445.901C812.81 449.034 810.983 451.597 808.393 453.59C805.812 455.63 802.629 456.934 798.845 457.503C795.107 458.065 791.676 457.803 788.551 456.716C785.426 455.629 782.839 453.825 780.79 451.302C778.749 448.825 777.417 445.794 776.793 442.208C775.905 437.105 776.847 432.858 779.62 429.469L761.761 432.155L760.249 423.466L792.022 418.687C795.76 418.124 799.203 418.456 802.352 419.681C805.548 420.898 808.186 422.861 810.266 425.567C812.402 428.313 813.809 431.639 814.489 435.547ZM783.902 439.794C784.462 443.012 785.979 445.473 788.454 447.177C790.975 448.874 793.943 449.465 797.358 448.952C800.773 448.438 803.389 447.007 805.206 444.657C807.023 442.308 807.651 439.524 807.091 436.306C806.523 433.042 805.006 430.581 802.539 428.923C800.073 427.265 797.109 426.697 793.648 427.217C790.187 427.738 787.544 429.15 785.719 431.453C783.948 433.795 783.342 436.576 783.902 439.794Z" fill="#2247AF"/>
<path d="M819.128 491.016L781.762 492.049L781.325 484.221L792.591 483.91L792.04 474.055L780.349 466.749L779.826 457.383L792.773 465.845C793.555 463.117 794.862 461.004 796.694 459.507C798.575 458.055 800.939 457.289 803.784 457.21C808.076 457.092 811.473 458.514 813.974 461.478C816.476 464.443 817.875 468.58 818.172 473.892L819.128 491.016ZM810.84 474.375C810.525 468.737 808.245 465.977 804 466.094C799.802 466.21 797.855 468.994 798.159 474.446L798.679 483.741L811.344 483.391L810.84 474.375Z" fill="#2247AF"/>
<path d="M815.646 545.578C815.21 550.271 813.5 553.817 810.513 556.215C807.573 558.62 803.395 559.482 797.977 558.802L776.724 556.133L777.532 547.421L797.674 549.949C800.915 550.356 803.413 549.941 805.167 548.704C806.968 547.473 807.993 545.51 808.243 542.815C808.515 539.887 807.76 537.419 805.979 535.409C804.245 533.405 801.595 532.179 798.029 531.731L779.207 529.368L780.015 520.656L800.157 523.184C803.399 523.591 805.896 523.176 807.651 521.939C809.451 520.708 810.476 518.745 810.726 516.05C811.002 513.076 810.273 510.587 808.538 508.583C806.799 506.625 804.124 505.42 800.512 504.966L781.69 502.603L782.499 493.89L819.587 498.547L818.818 506.841L814.095 506.248C815.633 507.852 816.744 509.754 817.43 511.956C818.116 514.157 818.34 516.536 818.103 519.091C817.844 521.879 817.083 524.275 815.82 526.279C814.599 528.335 812.911 529.863 810.758 530.861C812.56 532.639 813.882 534.803 814.722 537.353C815.61 539.909 815.917 542.65 815.646 545.578Z" fill="#2247AF"/>
<path d="M802.858 598.294L772.4 589.473C759.76 585.812 755.027 577.716 758.203 565.185C759.04 561.883 760.29 558.846 761.955 556.075C763.563 553.336 765.443 551.234 767.594 549.77L772.952 555.4C771.262 556.562 769.755 558.14 768.432 560.136C767.108 562.132 766.136 564.351 765.517 566.794C764.577 570.504 764.786 573.477 766.143 575.716C767.444 577.986 769.933 579.654 773.608 580.718L775.289 581.205C774.154 579.42 773.429 577.437 773.115 575.259C772.846 573.093 772.998 570.879 773.572 568.617C774.798 563.777 777.089 560.337 780.445 558.298C783.789 556.305 788.105 556.074 793.395 557.606L811.817 562.942L809.668 571.424L792.321 566.4C789.138 565.478 786.557 565.507 784.576 566.487C782.629 567.526 781.312 569.402 780.624 572.116C779.856 575.147 780.167 577.811 781.558 580.107C782.937 582.449 785.375 584.126 788.871 585.139L805.008 589.813L802.858 598.294Z" fill="#2247AF"/>
<path d="M787.527 637.662L753.17 622.935L756.202 615.176L760.577 617.052C759.542 615.086 758.978 612.941 758.884 610.617C758.817 608.356 759.225 606.095 760.108 603.834C761.925 599.183 764.625 596.053 768.209 594.443C771.835 592.851 776.158 593.13 781.176 595.281L800.8 603.692L797.615 611.842L779.086 603.9C775.997 602.576 773.41 602.279 771.322 603.008C769.26 603.799 767.711 605.52 766.675 608.172C765.555 611.041 765.542 613.699 766.638 616.148C767.761 618.659 769.995 620.632 773.34 622.066L790.712 629.512L787.527 637.662ZM798.255 622.316C799.631 618.796 801.477 616.441 803.794 615.252C806.138 614.125 808.862 614.202 811.967 615.482L809.853 620.894C808.292 620.275 806.882 620.229 805.625 620.756C804.351 621.326 803.382 622.459 802.72 624.154C802.075 625.806 802.015 627.303 802.543 628.645C803.053 630.031 804.071 631.077 805.598 631.782L803.433 637.324C800.362 635.957 798.376 633.989 797.477 631.422C796.62 628.872 796.879 625.837 798.255 622.316Z" fill="#2247AF"/>
<path d="M749.807 627.384C750.508 625.96 751.58 624.998 753.022 624.497C754.506 624.017 755.99 624.171 757.474 624.959C758.999 625.768 759.999 626.906 760.473 628.373C760.926 629.881 760.792 631.367 760.07 632.833C759.348 634.298 758.276 635.26 756.854 635.72C755.411 636.221 753.927 636.067 752.402 635.258C750.919 634.47 749.929 633.311 749.435 631.781C748.982 630.273 749.106 628.807 749.807 627.384Z" fill="#2247AF"/>
</svg>
