<svg width="40" height="40" viewBox="0 0 40 40" fill="none" xmlns="http://www.w3.org/2000/svg">
<path d="M9.6 33C10.1523 33 10.6 32.5523 10.6 32C10.6 31.4477 10.1523 31 9.6 31V33ZM11.25 17V18C11.8023 18 12.25 17.5523 12.25 17H11.25ZM27.75 17H26.75C26.75 17.5523 27.1977 18 27.75 18V17ZM29.4 31C28.8477 31 28.4 31.4477 28.4 32C28.4 32.5523 28.8477 33 29.4 33V31ZM10.425 18H11.25V16H10.425V18ZM12.25 17V15.3333H10.25V17H12.25ZM26.75 15.3333V17H28.75V15.3333H26.75ZM27.75 18H28.575V16H27.75V18ZM35 24.5C35 26.377 34.4336 28.0128 33.4713 29.161C32.5229 30.2927 31.153 31 29.4 31V33C31.7477 33 33.6778 32.0284 35.0042 30.4456C36.3168 28.8794 37 26.7651 37 24.5H35ZM19.5 8C23.4946 8 26.75 11.2737 26.75 15.3333H28.75C28.75 10.1882 24.6181 6 19.5 6V8ZM12.25 15.3333C12.25 11.2737 15.5054 8 19.5 8V6C14.3819 6 10.25 10.1882 10.25 15.3333H12.25ZM28.575 18C32.114 18 35 20.9007 35 24.5H37C37 19.8151 33.2374 16 28.575 16V18ZM4 24.5C4 20.9007 6.88602 18 10.425 18V16C5.76255 16 2 19.8151 2 24.5H4ZM9.6 31C7.84702 31 6.47709 30.2927 5.52868 29.161C4.56643 28.0128 4 26.377 4 24.5H2C2 26.7651 2.68321 28.8794 3.99579 30.4456C5.32219 32.0284 7.25227 33 9.6 33V31Z" fill="#2247AF"/>
<path d="M15 32.1744V25.8256C15 25.3696 15.3696 25 15.8256 25H24.1744C24.6304 25 25 25.3696 25 25.8256V32.1744C25 32.6304 24.6304 33 24.1744 33H15.8256C15.3696 33 15 32.6304 15 32.1744Z" stroke="#2247AF" stroke-width="2" stroke-linecap="round" stroke-linejoin="round"/>
<path d="M17 25V23.5C17 21.567 18.567 20 20.5 20V20C22.433 20 24 21.567 24 23.5V25" stroke="#2247AF" stroke-width="2" stroke-linecap="round" stroke-linejoin="round"/>
</svg>
