<svg width="124" height="233" viewBox="0 0 124 233" fill="none" xmlns="http://www.w3.org/2000/svg">
<g clip-path="url(#clip0_436_1798)">
<g filter="url(#filter0_f_436_1798)">
<path d="M7.99976 74.5922C7.99976 61.6644 18.4798 51.1843 31.4076 51.1843C44.3354 51.1843 54.8154 61.6644 54.8154 74.5922C54.8154 87.52 44.3354 98 31.4076 98C18.4798 98 7.99976 87.52 7.99976 74.5922ZM46.3037 74.5922C46.3037 66.3653 39.6345 59.696 31.4076 59.696C23.1807 59.696 16.5115 66.3653 16.5115 74.5922C16.5115 82.8191 23.1807 89.4883 31.4076 89.4883C39.6345 89.4883 46.3037 82.8191 46.3037 74.5922Z" fill="#2247AF" fill-opacity="0.4"/>
</g>
<g filter="url(#filter1_f_436_1798)">
<path d="M76.8396 200.592C76.8396 187.664 87.3196 177.184 100.247 177.184C113.175 177.184 123.655 187.664 123.655 200.592C123.655 213.52 113.175 224 100.247 224C87.3196 224 76.8396 213.52 76.8396 200.592ZM115.144 200.592C115.144 192.365 108.474 185.696 100.247 185.696C92.0205 185.696 85.3513 192.365 85.3513 200.592C85.3513 208.819 92.0205 215.488 100.247 215.488C108.474 215.488 115.144 208.819 115.144 200.592Z" fill="#2247AF" fill-opacity="0.4"/>
</g>
<g filter="url(#filter2_f_436_1798)">
<path fill-rule="evenodd" clip-rule="evenodd" d="M74.1019 51.6854L87.1984 57.6176L93.587 43.5137L106.683 49.4459L112.616 36.3494L99.5192 30.4172L105.451 17.3207L92.3549 11.3884L86.4227 24.485L72.3187 18.0964L66.3865 31.1929L80.4905 37.5815L74.1019 51.6854Z" fill="#2247AF" fill-opacity="0.4"/>
</g>
<g filter="url(#filter3_f_436_1798)">
<path d="M67.3139 141.989L93.8256 106.299L94.5136 110.961L78.7662 99.2637L85.857 89.718L123.797 117.901L116.706 127.446L101.019 115.794L105.682 115.106L79.1701 150.796L67.3139 141.989Z" fill="#2247AF" fill-opacity="0.4"/>
</g>
</g>
<defs>
<filter id="filter0_f_436_1798" x="3.74403" y="46.9284" width="55.3274" height="55.3276" filterUnits="userSpaceOnUse" color-interpolation-filters="sRGB">
<feFlood flood-opacity="0" result="BackgroundImageFix"/>
<feBlend mode="normal" in="SourceGraphic" in2="BackgroundImageFix" result="shape"/>
<feGaussianBlur stdDeviation="2.12799" result="effect1_foregroundBlur_436_1798"/>
</filter>
<filter id="filter1_f_436_1798" x="72.5839" y="172.928" width="55.3274" height="55.3276" filterUnits="userSpaceOnUse" color-interpolation-filters="sRGB">
<feFlood flood-opacity="0" result="BackgroundImageFix"/>
<feBlend mode="normal" in="SourceGraphic" in2="BackgroundImageFix" result="shape"/>
<feGaussianBlur stdDeviation="2.12799" result="effect1_foregroundBlur_436_1798"/>
</filter>
<filter id="filter2_f_436_1798" x="62.1307" y="7.13246" width="54.7405" height="54.7411" filterUnits="userSpaceOnUse" color-interpolation-filters="sRGB">
<feFlood flood-opacity="0" result="BackgroundImageFix"/>
<feBlend mode="normal" in="SourceGraphic" in2="BackgroundImageFix" result="shape"/>
<feGaussianBlur stdDeviation="2.12799" result="effect1_foregroundBlur_436_1798"/>
</filter>
<filter id="filter3_f_436_1798" x="49.9862" y="85.462" width="78.0666" height="79.2551" filterUnits="userSpaceOnUse" color-interpolation-filters="sRGB">
<feFlood flood-opacity="0" result="BackgroundImageFix"/>
<feBlend mode="normal" in="SourceGraphic" in2="BackgroundImageFix" result="shape"/>
<feGaussianBlur stdDeviation="2.12799" result="effect1_foregroundBlur_436_1798"/>
</filter>
<clipPath id="clip0_436_1798">
<rect width="124" height="233" fill="white"/>
</clipPath>
</defs>
</svg>
