<svg width="280" height="602" viewBox="0 0 280 602" fill="none" xmlns="http://www.w3.org/2000/svg">
<g clip-path="url(#clip0_375_1467)">
<g filter="url(#filter0_f_375_1467)">
<path d="M-11.2364 236.44L90.2444 261.226L80.7798 266.974L91.7161 222.198L118.858 228.828L92.5099 336.705L65.3677 330.076L76.2617 285.473L82.0106 294.937L-19.4702 270.151L-11.2364 236.44Z" fill="#2247AF" fill-opacity="0.4"/>
</g>
<g filter="url(#filter1_f_375_1467)">
<path fill-rule="evenodd" clip-rule="evenodd" d="M182.092 556.236L218.515 535.154L195.812 495.929L232.235 474.847L211.154 438.424L174.731 459.505L153.649 423.082L117.225 444.163L138.307 480.587L99.0815 503.29L120.163 539.713L159.389 517.01L182.092 556.236Z" fill="#2247AF" fill-opacity="0.4"/>
</g>
<g filter="url(#filter2_f_375_1467)">
<path fill-rule="evenodd" clip-rule="evenodd" d="M61.432 27.8771L30.6599 13.9385L15.6491 47.0778L-15.1229 33.1393L-29.0614 63.9113L1.71056 77.8499L-12.228 108.622L18.5441 122.56L32.4826 91.7884L65.6219 106.799L79.5605 76.0272L46.4212 61.0163L61.432 27.8771Z" fill="#2247AF" fill-opacity="0.4"/>
</g>
</g>
<defs>
<filter id="filter0_f_375_1467" x="-38.5063" y="189.27" width="167.365" height="157.435" filterUnits="userSpaceOnUse" color-interpolation-filters="sRGB">
<feFlood flood-opacity="0" result="BackgroundImageFix"/>
<feBlend mode="normal" in="SourceGraphic" in2="BackgroundImageFix" result="shape"/>
<feGaussianBlur stdDeviation="5" result="effect1_foregroundBlur_375_1467"/>
</filter>
<filter id="filter1_f_375_1467" x="89.0815" y="413.082" width="153.154" height="153.154" filterUnits="userSpaceOnUse" color-interpolation-filters="sRGB">
<feFlood flood-opacity="0" result="BackgroundImageFix"/>
<feBlend mode="normal" in="SourceGraphic" in2="BackgroundImageFix" result="shape"/>
<feGaussianBlur stdDeviation="5" result="effect1_foregroundBlur_375_1467"/>
</filter>
<filter id="filter2_f_375_1467" x="-39.0615" y="3.93848" width="128.622" height="128.622" filterUnits="userSpaceOnUse" color-interpolation-filters="sRGB">
<feFlood flood-opacity="0" result="BackgroundImageFix"/>
<feBlend mode="normal" in="SourceGraphic" in2="BackgroundImageFix" result="shape"/>
<feGaussianBlur stdDeviation="5" result="effect1_foregroundBlur_375_1467"/>
</filter>
<clipPath id="clip0_375_1467">
<rect width="280" height="602" fill="white"/>
</clipPath>
</defs>
</svg>
